<svg width="19" height="14" viewBox="0 0 19 14" fill="none" xmlns="http://www.w3.org/2000/svg">
<path d="M5.78223 2.10156C5.54785 2.10156 5.34863 2.02246 5.18457 1.86426C5.02637 1.7002 4.94727 1.50098 4.94727 1.2666C4.94727 1.03223 5.02637 0.835938 5.18457 0.677734C5.34863 0.513672 5.54785 0.431641 5.78223 0.431641H17.7178C17.9521 0.431641 18.1514 0.513672 18.3154 0.677734C18.4795 0.835938 18.5615 1.03223 18.5615 1.2666C18.5615 1.50684 18.4795 1.70605 18.3154 1.86426C18.1514 2.02246 17.9521 2.10156 17.7178 2.10156H5.78223ZM5.78223 7.49805C5.54785 7.49805 5.34863 7.41895 5.18457 7.26074C5.02637 7.09668 4.94727 6.89746 4.94727 6.66309C4.94727 6.42871 5.02637 6.23242 5.18457 6.07422C5.34863 5.91016 5.54785 5.82812 5.78223 5.82812H17.7178C17.9521 5.82812 18.1514 5.91016 18.3154 6.07422C18.4795 6.23242 18.5615 6.42871 18.5615 6.66309C18.5615 6.89746 18.4795 7.09668 18.3154 7.26074C18.1514 7.41895 17.9521 7.49805 17.7178 7.49805H5.78223ZM5.78223 12.8945C5.54785 12.8945 5.34863 12.8154 5.18457 12.6572C5.02637 12.499 4.94727 12.3027 4.94727 12.0684C4.94727 11.8281 5.02637 11.6289 5.18457 11.4707C5.34863 11.3066 5.54785 11.2246 5.78223 11.2246H17.7178C17.9521 11.2246 18.1514 11.3066 18.3154 11.4707C18.4795 11.6348 18.5615 11.834 18.5615 12.0684C18.5615 12.3027 18.4795 12.499 18.3154 12.6572C18.1514 12.8154 17.9521 12.8945 17.7178 12.8945H5.78223ZM1.66895 2.50586C1.3291 2.50586 1.03613 2.38574 0.790039 2.14551C0.549805 1.90527 0.429688 1.6123 0.429688 1.2666C0.429688 0.920898 0.549805 0.62793 0.790039 0.387695C1.03613 0.147461 1.3291 0.0273438 1.66895 0.0273438C2.00879 0.0273438 2.29883 0.147461 2.53906 0.387695C2.78516 0.62793 2.9082 0.920898 2.9082 1.2666C2.9082 1.6123 2.78516 1.90527 2.53906 2.14551C2.29883 2.38574 2.00879 2.50586 1.66895 2.50586ZM1.66895 7.90234C1.3291 7.90234 1.03613 7.78223 0.790039 7.54199C0.549805 7.2959 0.429688 7.00293 0.429688 6.66309C0.429688 6.32324 0.549805 6.0332 0.790039 5.79297C1.03613 5.54688 1.3291 5.42383 1.66895 5.42383C2.00879 5.42383 2.29883 5.54688 2.53906 5.79297C2.78516 6.0332 2.9082 6.32324 2.9082 6.66309C2.9082 7.00293 2.78516 7.2959 2.53906 7.54199C2.29883 7.78223 2.00879 7.90234 1.66895 7.90234ZM1.66895 13.2988C1.3291 13.2988 1.03613 13.1787 0.790039 12.9385C0.549805 12.6982 0.429688 12.4082 0.429688 12.0684C0.429688 11.7227 0.549805 11.4297 0.790039 11.1895C1.03613 10.9492 1.3291 10.8291 1.66895 10.8291C2.00879 10.8291 2.29883 10.9492 2.53906 11.1895C2.78516 11.4297 2.9082 11.7227 2.9082 12.0684C2.9082 12.4082 2.78516 12.6982 2.53906 12.9385C2.29883 13.1787 2.00879 13.2988 1.66895 13.2988Z" fill="#98F127"/>
</svg>
