<svg width="23" height="17" viewBox="0 0 23 17" fill="none" xmlns="http://www.w3.org/2000/svg">
<path d="M0.43457 12.7412V4.56738C0.43457 4.34473 0.481445 4.15723 0.575195 4.00488C0.668945 3.85254 0.81543 3.72949 1.01465 3.63574C1.5127 3.38965 1.91992 3.10547 2.23633 2.7832C2.55273 2.45508 2.85449 2.00098 3.1416 1.4209C3.34082 1.04004 3.64551 0.849609 4.05566 0.849609H18.9268C19.3428 0.849609 19.6475 1.04004 19.8408 1.4209C20.1338 2.00098 20.4385 2.45508 20.7549 2.7832C21.0713 3.10547 21.4785 3.38965 21.9766 3.63574C22.1699 3.72949 22.3135 3.85254 22.4072 4.00488C22.5068 4.15723 22.5566 4.34473 22.5566 4.56738V12.7412C22.5566 12.9639 22.5068 13.1514 22.4072 13.3037C22.3135 13.4561 22.1699 13.5791 21.9766 13.6729C21.4785 13.9131 21.0713 14.1973 20.7549 14.5254C20.4385 14.8477 20.1338 15.3018 19.8408 15.8877C19.6475 16.2627 19.3428 16.4502 18.9268 16.4502H4.05566C3.64551 16.4502 3.34082 16.2627 3.1416 15.8877C2.85449 15.3018 2.55273 14.8477 2.23633 14.5254C1.91992 14.1973 1.5127 13.9131 1.01465 13.6729C0.81543 13.5791 0.668945 13.4561 0.575195 13.3037C0.481445 13.1514 0.43457 12.9639 0.43457 12.7412ZM4.24023 12.6357C4.24023 12.8877 4.31641 13.0898 4.46875 13.2422C4.62109 13.3945 4.82031 13.4707 5.06641 13.4707H17.916C18.1621 13.4707 18.3613 13.3945 18.5137 13.2422C18.666 13.0898 18.7422 12.8877 18.7422 12.6357V4.67285C18.7422 4.4209 18.666 4.21875 18.5137 4.06641C18.3613 3.91406 18.1621 3.83789 17.916 3.83789H5.06641C4.82031 3.83789 4.62109 3.91406 4.46875 4.06641C4.31641 4.21875 4.24023 4.4209 4.24023 4.67285V12.6357ZM5.44434 6.65039V5.20898C5.44434 5.0918 5.50293 5.0332 5.62012 5.0332H6.53418V6.65039H5.44434ZM5.44434 9.47168V7.8457H6.53418V9.47168H5.44434ZM5.44434 12.0908V10.667H6.53418V12.2754H5.62012C5.50293 12.2754 5.44434 12.2139 5.44434 12.0908ZM16.4482 6.65039V5.0332H17.3711C17.4883 5.0332 17.5469 5.0918 17.5469 5.20898V6.65039H16.4482ZM16.4482 9.47168V7.8457H17.5469V9.47168H16.4482ZM16.4482 12.2754V10.6582H17.5469V12.0996C17.5469 12.2168 17.4883 12.2754 17.3711 12.2754H16.4482ZM7.73828 12.2754V5.0332H15.2529V12.2754H7.73828Z" fill="#98F127"/>
</svg>
