<svg width="26" height="15" viewBox="0 0 26 15" fill="none" xmlns="http://www.w3.org/2000/svg">
<path d="M0.730469 11.917V3.40039C0.730469 2.46289 0.973633 1.75391 1.45996 1.27344C1.94629 0.792969 2.66113 0.552734 3.60449 0.552734H13.29C13.9814 0.552734 14.6025 0.602539 15.1533 0.702148C15.71 0.795898 16.2344 0.957031 16.7266 1.18555C17.2246 1.4082 17.7227 1.71289 18.2207 2.09961C18.7246 2.48047 19.2666 2.95801 19.8467 3.53223L23.4678 7.11816C24.0713 7.70996 24.5195 8.33984 24.8125 9.00781C25.1113 9.67578 25.2607 10.3291 25.2607 10.9678C25.2607 11.665 25.085 12.3037 24.7334 12.8838C24.3877 13.458 23.875 13.915 23.1953 14.2549C22.5156 14.5947 21.6865 14.7646 20.708 14.7646H3.60449C2.66113 14.7646 1.94629 14.5244 1.45996 14.0439C0.973633 13.5635 0.730469 12.8545 0.730469 11.917ZM10.3721 7.71582C10.3721 7.95605 10.4424 8.14648 10.583 8.28711C10.7236 8.42773 10.9199 8.49805 11.1719 8.49805H19.8027C19.9961 8.49805 20.1514 8.43066 20.2686 8.2959C20.3857 8.15527 20.4385 7.98535 20.4268 7.78613C20.415 7.58691 20.3242 7.40234 20.1543 7.23242L18.2119 5.30762C17.9072 4.99707 17.5996 4.74512 17.2891 4.55176C16.9785 4.35254 16.6387 4.19727 16.2695 4.08594C15.9062 3.96875 15.4873 3.88672 15.0127 3.83984C14.5381 3.78711 13.9814 3.76074 13.3428 3.76074H11.1719C10.6387 3.76074 10.3721 4.03027 10.3721 4.56934V7.71582Z" fill="#98F127"/>
</svg>
