<svg width="19" height="17" viewBox="0 0 19 17" fill="none" xmlns="http://www.w3.org/2000/svg">
<path d="M3.45312 16.8721C2.50391 16.8721 1.78613 16.6289 1.2998 16.1426C0.813477 15.6621 0.570312 14.9531 0.570312 14.0156V3.31934C0.570312 2.37598 0.813477 1.66406 1.2998 1.18359C1.78613 0.703125 2.50391 0.462891 3.45312 0.462891H15.5469C16.502 0.462891 17.2197 0.703125 17.7002 1.18359C18.1865 1.66406 18.4297 2.37598 18.4297 3.31934V14.0156C18.4297 14.9531 18.1865 15.6621 17.7002 16.1426C17.2197 16.6289 16.502 16.8721 15.5469 16.8721H3.45312ZM3.43555 15.1406H15.5557C15.9248 15.1406 16.2061 15.0469 16.3994 14.8594C16.5986 14.666 16.6982 14.3789 16.6982 13.998V5.87695C16.6982 5.49609 16.5986 5.20898 16.3994 5.01562C16.2061 4.82227 15.9248 4.72559 15.5557 4.72559H3.43555C3.06641 4.72559 2.78516 4.82227 2.5918 5.01562C2.39844 5.20898 2.30176 5.49609 2.30176 5.87695V13.998C2.30176 14.3789 2.39844 14.666 2.5918 14.8594C2.78516 15.0469 3.06641 15.1406 3.43555 15.1406ZM4.94727 7.89844C4.7832 7.89844 4.64551 7.8457 4.53418 7.74023C4.42871 7.62891 4.37598 7.49121 4.37598 7.32715C4.37598 7.1748 4.42871 7.0459 4.53418 6.94043C4.64551 6.83496 4.7832 6.78223 4.94727 6.78223H14.0703C14.2344 6.78223 14.3691 6.83496 14.4746 6.94043C14.5801 7.0459 14.6328 7.1748 14.6328 7.32715C14.6328 7.49121 14.5801 7.62891 14.4746 7.74023C14.3691 7.8457 14.2344 7.89844 14.0703 7.89844H4.94727ZM4.94727 10.4912C4.7832 10.4912 4.64551 10.4385 4.53418 10.333C4.42871 10.2275 4.37598 10.0986 4.37598 9.94629C4.37598 9.78809 4.42871 9.65625 4.53418 9.55078C4.64551 9.43945 4.7832 9.38379 4.94727 9.38379H14.0703C14.2344 9.38379 14.3691 9.43945 14.4746 9.55078C14.5801 9.65625 14.6328 9.78809 14.6328 9.94629C14.6328 10.0986 14.5801 10.2275 14.4746 10.333C14.3691 10.4385 14.2344 10.4912 14.0703 10.4912H4.94727ZM4.94727 13.0928C4.7832 13.0928 4.64551 13.04 4.53418 12.9346C4.42871 12.8291 4.37598 12.7002 4.37598 12.5479C4.37598 12.3896 4.42871 12.2578 4.53418 12.1523C4.64551 12.041 4.7832 11.9854 4.94727 11.9854H10.7041C10.8682 11.9854 11.0029 12.041 11.1084 12.1523C11.2139 12.2578 11.2666 12.3896 11.2666 12.5479C11.2666 12.7002 11.2139 12.8291 11.1084 12.9346C11.0029 13.04 10.8682 13.0928 10.7041 13.0928H4.94727Z" fill="#98F127"/>
</svg>
